<svg width="48" height="48" viewBox="0 0 48 48" fill="none" xmlns="http://www.w3.org/2000/svg">
<path d="M31.6045 42.6226H26.957C26.7415 42.6226 26.5349 42.7082 26.3825 42.8605C26.2301 43.0129 26.1445 43.2196 26.1445 43.4351C26.1445 43.6505 26.2301 43.8572 26.3825 44.0096C26.5349 44.162 26.7415 44.2476 26.957 44.2476H31.6045C31.82 44.2476 32.0267 44.162 32.1791 44.0096C32.3314 43.8572 32.417 43.6505 32.417 43.4351C32.417 43.2196 32.3314 43.0129 32.1791 42.8605C32.0267 42.7082 31.82 42.6226 31.6045 42.6226Z" fill="#897059"/>
<path d="M24.8125 39.3726H24C23.7845 39.3726 23.5778 39.4582 23.4255 39.6105C23.2731 39.7629 23.1875 39.9696 23.1875 40.1851C23.1875 40.4005 23.2731 40.6072 23.4255 40.7596C23.5778 40.912 23.7845 40.9976 24 40.9976H24.8125C25.028 40.9976 25.2347 40.912 25.387 40.7596C25.5394 40.6072 25.625 40.4005 25.625 40.1851C25.625 39.9696 25.5394 39.7629 25.387 39.6105C25.2347 39.4582 25.028 39.3726 24.8125 39.3726Z" fill="#897059"/>
<path d="M46.3681 40.5587C45.7446 39.9487 44.9412 39.5555 44.0769 39.4375L33.75 12.3243C34.0345 11.9168 34.1876 11.432 34.1888 10.935C34.185 10.6406 34.13 10.3492 34.0262 10.0737L36.9188 3.98808C37.056 3.69797 37.1346 3.38362 37.1501 3.06305C37.1655 2.74249 37.1175 2.42203 37.0088 2.12007C36.9001 1.8181 36.7328 1.54058 36.5166 1.30342C36.3004 1.06626 36.0394 0.874141 35.7487 0.738081C35.4596 0.60029 35.1462 0.520832 34.8263 0.504247C34.5065 0.487662 34.1865 0.534276 33.8846 0.641426C33.5828 0.748575 33.3051 0.914158 33.0673 1.12871C32.8295 1.34326 32.6363 1.60258 32.4987 1.89183L29.3625 8.49746H21.1562C20.5098 8.49746 19.8898 8.75426 19.4327 9.21138C18.9756 9.6685 18.7188 10.2885 18.7188 10.935C18.7188 11.5814 18.9756 12.2014 19.4327 12.6585C19.8898 13.1156 20.5098 13.3725 21.1562 13.3725H25.8769L34.27 35.31H11C9.84879 35.3111 8.73513 35.7197 7.85625 36.4632C6.97738 37.2068 6.38999 38.2373 6.19812 39.3725H4.5C3.42256 39.3725 2.38925 39.8005 1.62738 40.5623C0.865512 41.3242 0.4375 42.3575 0.4375 43.435C0.444042 43.6913 0.471213 43.9467 0.51875 44.1987C0.548062 44.3231 0.586072 44.4453 0.6325 44.5643C0.660765 44.6979 0.701571 44.8285 0.754375 44.9543C0.822087 45.1047 0.898035 45.2511 0.981875 45.3931C1.03063 45.4743 1.07125 45.5718 1.12812 45.6531C1.20776 45.7669 1.2946 45.8754 1.38813 45.9781C1.46938 46.0756 1.5425 46.1812 1.63187 46.2706C1.74803 46.3776 1.87009 46.4779 1.9975 46.5712C2.07512 46.6406 2.15649 46.7057 2.24125 46.7662C2.34609 46.8319 2.4546 46.8916 2.56625 46.945C2.68648 47.018 2.81133 47.0831 2.94 47.14C3.05375 47.1887 3.1675 47.2131 3.28125 47.2537C3.41947 47.3029 3.56057 47.3436 3.70375 47.3756C3.84621 47.4003 3.99 47.4166 4.13438 47.4243H4.5H43.5C44.3039 47.4242 45.0896 47.1855 45.7577 46.7386C46.4259 46.2917 46.9465 45.6566 47.2535 44.9137C47.5606 44.1708 47.6404 43.3535 47.4828 42.5653C47.3252 41.777 46.9373 41.0533 46.3681 40.4856V40.5587ZM33.9531 2.59058C34.0446 2.39814 34.208 2.24933 34.4081 2.17621C34.6059 2.09494 34.8278 2.09494 35.0256 2.17621C35.2206 2.26782 35.3712 2.43312 35.4444 2.63577C35.5175 2.83841 35.5072 3.06181 35.4156 3.25683L32.8075 8.73308C32.4704 8.56031 32.0976 8.46851 31.7188 8.46496H31.1419L33.9531 2.59058ZM21.1562 11.7475C20.9408 11.7475 20.7341 11.6619 20.5817 11.5095C20.4294 11.3571 20.3438 11.1504 20.3438 10.935C20.3438 10.7195 20.4294 10.5128 20.5817 10.3604C20.7341 10.2081 20.9408 10.1225 21.1562 10.1225H31.7188C31.9342 10.1225 32.1409 10.2081 32.2933 10.3604C32.4456 10.5128 32.5312 10.7195 32.5312 10.935C32.5312 11.1504 32.4456 11.3571 32.2933 11.5095C32.1409 11.6619 31.9342 11.7475 31.7188 11.7475H21.1562ZM27.6562 13.3725H32.4175L42.3625 39.3725H37.5606L27.6562 13.3725ZM4.5 45.8725C4.34749 45.871 4.19535 45.8574 4.045 45.8318C3.93125 45.8318 3.8175 45.7668 3.71188 45.7343L3.59 45.6937L3.33 45.5556L3.1675 45.4662C3.12494 45.4362 3.08423 45.4036 3.04562 45.3687C2.89463 45.2529 2.75822 45.1192 2.63937 44.9706L2.50125 44.8C2.50125 44.7593 2.50125 44.7187 2.43625 44.6862C2.37125 44.6537 2.3225 44.4831 2.27375 44.3775C2.25377 44.3217 2.23749 44.2647 2.225 44.2068C2.18656 44.115 2.15664 44.0198 2.13563 43.9225C2.09917 43.784 2.0747 43.6426 2.0625 43.5C2.0625 43.5 2.0625 43.5 2.0625 43.4512C2.0625 42.9691 2.20546 42.4978 2.47329 42.097C2.74113 41.6962 3.12181 41.3837 3.56721 41.1992C4.0126 41.0148 4.5027 40.9665 4.97553 41.0605C5.44836 41.1546 5.88268 41.3867 6.22357 41.7276C6.56446 42.0685 6.79661 42.5028 6.89066 42.9757C6.98472 43.4485 6.93645 43.9386 6.75196 44.384C6.56747 44.8294 6.25505 45.2101 5.8542 45.4779C5.45336 45.7458 4.98209 45.8887 4.5 45.8887V45.8725ZM35.4319 45.8725H7.75C8.2774 45.1693 8.5625 44.314 8.5625 43.435C8.56727 42.5552 8.28168 41.6984 7.75 40.9975H20.75C20.9655 40.9975 21.1722 40.9119 21.3245 40.7595C21.4769 40.6071 21.5625 40.4004 21.5625 40.185C21.5625 39.9695 21.4769 39.7628 21.3245 39.6104C21.1722 39.4581 20.9655 39.3725 20.75 39.3725H7.86375C8.04342 38.6766 8.4487 38.0599 9.01617 37.6188C9.58364 37.1778 10.2813 36.9373 11 36.935H34.8875L35.8219 39.3725H28.0625C27.847 39.3725 27.6403 39.4581 27.488 39.6104C27.3356 39.7628 27.25 39.9695 27.25 40.185C27.25 40.4004 27.3356 40.6071 27.488 40.7595C27.6403 40.9119 27.847 40.9975 28.0625 40.9975H38.82L37.5363 42.0618C36.3846 43.0244 35.6365 44.3844 35.44 45.8725H35.4319ZM43.4919 45.8725H37.0812C37.2785 44.8642 37.8251 43.9578 38.625 43.3131L41.3956 40.9975H43.5C44.1465 40.9975 44.7665 41.2543 45.2236 41.7114C45.6807 42.1685 45.9375 42.7885 45.9375 43.435C45.9375 44.0814 45.6807 44.7014 45.2236 45.1585C44.7665 45.6157 44.1465 45.8725 43.5 45.8725H43.4919Z" fill="#897059"/>
</svg>
