<svg width="52" height="52" viewBox="0 0 52 52" fill="none" xmlns="http://www.w3.org/2000/svg">
<path d="M33.1516 36.5625H34.9375V34.9375H17.0625V36.5625H18.8484L21.7376 49.5625H20.3125V51.1875H31.6875V49.5625H30.2624L33.1516 36.5625ZM20.5124 36.5625H31.4868L28.5976 49.5625H23.4008L20.5124 36.5625Z" fill="#897059"/>
<path d="M14.625 41.4375H9.52331L6.93631 33.6765C6.539 32.4862 5.42994 31.6875 4.17625 31.6875H3.72206C2.11737 31.6875 0.8125 32.9924 0.8125 34.5971C0.8125 34.9091 0.862875 35.2186 0.962 35.5176L4.17625 45.1596C4.72956 46.8211 6.279 47.9375 8.02994 47.9375H10.5625V49.5625H7.3125V51.1875H15.4375V49.5625H12.1875V47.9375H16.25C17.5939 47.9375 18.6875 46.8439 18.6875 45.5C18.6875 43.2599 16.8651 41.4375 14.625 41.4375ZM16.25 46.3125H8.02994C6.97938 46.3125 6.04988 45.643 5.71756 44.6453L2.50412 35.0049C2.45944 34.8725 2.4375 34.7352 2.4375 34.5971C2.4375 33.8886 3.01356 33.3125 3.72206 33.3125H4.17625C4.73037 33.3125 5.2195 33.6659 5.395 34.1908L8.35169 43.0625H14.625C15.9689 43.0625 17.0625 44.1561 17.0625 45.5C17.0625 45.9485 16.6977 46.3125 16.25 46.3125Z" fill="#897059"/>
<path d="M48.2779 31.6875H47.8238C46.5701 31.6875 45.4602 32.4862 45.0637 33.6765L42.4767 41.4375H37.375C35.1349 41.4375 33.3125 43.2599 33.3125 45.5C33.3125 46.8439 34.4061 47.9375 35.75 47.9375H39.8125V49.5625H36.5625V51.1875H44.6875V49.5625H41.4375V47.9375H43.9701C45.721 47.9375 47.2704 46.8211 47.8238 45.1596L51.0388 35.516C51.1371 35.2186 51.1875 34.9091 51.1875 34.5971C51.1875 32.9924 49.8826 31.6875 48.2779 31.6875ZM49.4967 35.0033L46.2824 44.6453C45.9501 45.643 45.0206 46.3125 43.9701 46.3125H35.75C35.3023 46.3125 34.9375 45.9485 34.9375 45.5C34.9375 44.1561 36.0311 43.0625 37.375 43.0625H43.6483L46.6058 34.1908C46.7805 33.6659 47.2704 33.3125 47.8238 33.3125H48.2779C48.9864 33.3125 49.5625 33.8886 49.5625 34.5971C49.5625 34.7352 49.5406 34.8725 49.4967 35.0033Z" fill="#897059"/>
<path d="M49.5625 5.6875H34.9375V7.3125H49.5625V23.5625H33.3125V17.0625H36.6478L35.9881 10.4699C35.8361 8.94969 34.7384 7.75531 33.3125 7.41731V2.4375H34.9375V0.8125H17.0625V2.4375H18.6875V7.41731C17.2616 7.75531 16.1639 8.94969 16.0119 10.4691L15.3522 17.0625H18.6875V23.5625H2.4375V7.3125H17.0625V5.6875H2.4375C1.54131 5.6875 0.8125 6.41631 0.8125 7.3125V23.5625C0.8125 24.4587 1.54131 25.1875 2.4375 25.1875H18.6875C19.5837 25.1875 20.3125 24.4587 20.3125 23.5625V17.0625H22.0147L21.8522 18.6875H30.1478L29.9853 17.0625H31.6875V23.5625C31.6875 24.4587 32.4163 25.1875 33.3125 25.1875H49.5625C50.4587 25.1875 51.1875 24.4587 51.1875 23.5625V7.3125C51.1875 6.41631 50.4587 5.6875 49.5625 5.6875ZM17.1478 15.4375L17.6288 10.6316C17.7247 9.6655 18.5299 8.9375 19.5 8.9375C20.4701 8.9375 21.2753 9.6655 21.3712 10.6316L21.8522 15.4375H17.1478ZM20.3125 7.41731V2.4375H25.1875V9.04231C24.2629 9.26087 23.4845 9.84262 23.0059 10.6405L22.9889 10.4699C22.8361 8.94969 21.7384 7.75531 20.3125 7.41731ZM23.6478 17.0625L24.1288 12.2566C24.2247 11.2905 25.0299 10.5625 26 10.5625C26.9701 10.5625 27.7753 11.2905 27.8712 12.2566L28.3522 17.0625H23.6478ZM29.0119 10.4699L28.9949 10.6405C28.5155 9.84262 27.7379 9.26169 26.8133 9.04231V2.4375H31.6883V7.41731C30.2616 7.75531 29.1639 8.94969 29.0119 10.4699ZM30.6288 10.6316C30.7247 9.6655 31.5299 8.9375 32.5 8.9375C33.4701 8.9375 34.2753 9.6655 34.3712 10.6316L34.8522 15.4375H30.1478L30.6288 10.6316Z" fill="#897059"/>
<path d="M34.9375 18.6875V21.9375H47.9375V8.9375H36.5625V10.5625H46.3125V20.3125H36.5625V18.6875H34.9375Z" fill="#897059"/>
<path d="M15.4375 10.5625V8.9375H4.0625V21.9375H17.0625V18.6875H15.4375V20.3125H5.6875V10.5625H15.4375Z" fill="#897059"/>
</svg>
