<svg width="38" height="46" viewBox="0 0 38 46" fill="none" xmlns="http://www.w3.org/2000/svg">
<path fill-rule="evenodd" clip-rule="evenodd" d="M36.6065 26.2919C36.6065 26.5268 36.4179 26.7177 36.1807 26.7177H33.6152C33.5991 26.7177 33.5828 26.7177 33.572 26.7187C32.5779 26.8009 30.9156 27.3714 30.9957 30.6742L31.3029 37.011C27.3254 37.0363 24.2854 36.2829 21.8331 34.6557L24.8191 27.1128C24.8245 27.0928 24.8299 27.0723 24.8406 27.0518C25.0831 26.2013 25.0885 25.2392 24.8514 24.1112C24.846 24.1015 24.846 24.0907 24.8406 24.0816L22.9434 16.689C22.8841 16.467 23.0189 16.2357 23.2398 16.1737L23.3584 16.1409C23.5632 16.0826 23.768 16.1786 23.8597 16.3748L26.2527 21.6589C26.6569 22.5514 27.2499 23.2979 27.972 23.866C28.3331 24.1867 28.7589 24.44 29.217 24.6059C29.7075 24.8173 30.2357 24.965 30.7854 25.0415L36.2398 25.7928C36.45 25.8224 36.6063 25.9998 36.6063 26.2143V26.2919H36.6065ZM31.8527 43.2384C31.9611 43.6299 31.5455 43.9749 31.1844 43.7736C31.0766 43.7138 30.9957 43.6162 30.9634 43.4987L29.4381 38.3084C29.7561 38.3272 30.0849 38.3402 30.4136 38.3472L31.8527 43.2384ZM24.2532 41.498C24.2964 41.3805 24.2909 41.2545 24.2371 41.1439L22.9867 38.4991C22.9112 38.3444 22.9005 38.1671 22.9543 38.0037L23.2939 36.9646C23.0082 36.8406 22.7226 36.7092 22.4478 36.5674L21.8764 38.3213L23.3963 41.5401C23.5729 41.9078 24.1087 41.8917 24.2532 41.498ZM30.4999 18.5474C29.1416 18.5474 28.0313 19.655 28.0313 21.016C28.0313 21.756 28.3601 22.4205 28.8775 22.8733C29.1308 23.0603 29.4003 23.2183 29.6913 23.3482C29.9446 23.436 30.2195 23.484 30.4997 23.484C31.8634 23.484 32.9683 22.3769 32.9683 21.0161C32.9684 19.6549 31.8635 18.5474 30.4999 18.5474ZM36.4233 24.4616L32.8984 23.976C33.7608 23.2764 34.3159 22.2103 34.3159 21.016C34.3159 18.9139 32.602 17.2037 30.5 17.2037C28.8238 17.2037 27.3955 18.2941 26.8889 19.8016L25.0833 15.8191C24.7168 15.0171 23.8382 14.609 22.9921 14.8473L22.8735 14.8802C21.9573 15.1394 21.4021 16.1004 21.6393 17.0236L23.5364 24.4005C23.7197 25.277 23.7251 26.0342 23.5527 26.6502L20.3889 34.6567C20.2757 34.9424 20.3727 35.2674 20.6206 35.4479C20.8308 35.5994 21.0409 35.7433 21.2565 35.8829L20.5127 38.1568C20.4589 38.3213 20.4696 38.4986 20.5451 38.6532L22.1836 42.1151C22.8677 43.5632 24.9728 43.4667 25.5198 41.9501C25.6815 41.4942 25.6546 41.0042 25.4497 40.5687L24.3125 38.167L24.5496 37.4394C25.6167 37.7849 26.7594 38.0318 27.999 38.1811L29.6698 43.8769C30.1264 45.408 32.2154 45.6535 32.9899 44.2343C33.2216 43.8095 33.2756 43.3213 33.1408 42.8589L31.8149 38.346C32.0718 38.3421 32.2881 38.3532 32.4995 38.1277C32.6234 37.9946 32.6881 37.8183 32.6773 37.6383L32.3431 30.6192C32.2947 28.1976 33.281 28.085 33.6367 28.0612H36.1806C37.1562 28.0612 37.9484 27.2679 37.9484 26.2918V26.2142C37.9485 25.3207 37.3072 24.5834 36.4233 24.4616ZM18.9604 12.3933C18.2005 12.6165 17.4189 12.6563 16.6751 12.5216C19.0395 11.2468 20.8688 8.71266 21.4612 6.01563C21.8655 5.97518 22.2643 5.87606 22.6523 5.71923C23.4437 8.51652 21.8017 11.5641 18.9604 12.3933ZM16.3626 6.57141C15.4032 8.22979 15.0206 10.0904 15.2901 11.6835C17.598 10.8189 19.4656 8.45485 20.0977 5.93316C19.2416 5.74221 18.4554 5.28971 17.8609 4.64127C17.2896 5.19694 16.7776 5.85339 16.3626 6.57141ZM13.8671 10.8999C13.7877 8.21492 15.0732 5.37042 17.1064 3.50351C16.9393 3.13265 16.8261 2.73651 16.7723 2.32633C15.4248 2.66371 14.1906 3.54823 13.4252 4.87683C12.3163 6.80208 12.456 9.23911 13.8671 10.8999ZM18.2274 2.17761C19.3824 2.2473 20.3119 2.62606 21.1919 3.37902C21.5444 3.68073 21.8692 4.09028 22.1135 4.48714C21.2835 4.81537 20.3457 4.75338 19.5533 4.29474C18.7611 3.83662 18.2383 3.05673 18.1089 2.17491C18.1465 2.17595 18.1897 2.17595 18.2274 2.17761ZM23.2777 10.5636C21.4787 13.6712 17.5637 14.91 14.46 13.1188C11.3601 11.3297 10.4681 7.31365 12.261 4.2053C13.3747 2.27444 15.3324 1.0669 17.3381 0.861495C18.3052 0.762487 19.0038 0.864511 19.8875 1.12233C20.7665 1.37879 21.7015 1.97752 22.3506 2.6218V2.62554C22.8842 3.15865 23.3207 3.78868 23.6334 4.4963C23.6442 4.51949 23.6549 4.54268 23.6603 4.56691C24.458 6.41447 24.3826 8.64371 23.2777 10.5636ZM15.6942 18.2391L12.5466 25.4608C12.5251 25.5088 12.5089 25.56 12.5035 25.6117L11.4363 31.6687C11.3825 31.9759 11.5441 32.2799 11.8352 32.4033L14.9774 33.7523C15.2416 33.9065 15.8937 34.3684 15.2362 36.3804L14.1367 39.9544C14.0246 40.3274 13.4609 40.2284 13.4738 39.8423L13.6085 35.8274C13.6193 35.5526 13.463 35.2997 13.2096 35.1898L10.7411 34.1049C10.4178 33.9631 10.0459 34.0941 9.87873 34.404L4.94715 43.655C4.76276 44.0025 4.1606 43.7816 4.25732 43.3969L6.50487 34.473C6.51568 34.4261 6.52639 34.3782 6.52639 34.3297L6.61802 31.2635C6.61802 31.2495 6.61802 31.2344 6.61802 31.2198C6.57486 29.9484 5.91196 28.7325 4.59688 27.5053L1.49779 24.4736C1.22073 24.2039 1.55727 23.7495 1.89663 23.9378L5.35151 25.8604C6.35396 26.4166 7.4912 26.5147 8.64467 26.1444C9.10279 25.9994 9.53938 25.7886 9.94893 25.5344C10.4448 25.2918 10.8867 24.9442 11.2317 24.52C11.9862 23.787 12.5845 22.936 12.951 22.1593L14.9183 17.8912C15.1542 17.377 15.9186 17.7389 15.6942 18.2391ZM8.28868 19.6334C6.92513 19.6334 5.82013 20.741 5.82013 22.1019C5.82013 23.4634 6.92503 24.5699 8.28868 24.5699C8.64976 24.5699 8.99473 24.4901 9.30735 24.3478C9.6361 24.1366 9.94872 23.887 10.2344 23.6164C10.5632 23.1981 10.7572 22.6726 10.7572 22.1018C10.7572 20.741 9.64692 19.6334 8.28868 19.6334ZM15.8721 16.3963L15.8559 16.3914C15.0044 16.1057 14.0719 16.5089 13.6946 17.3286L11.9645 21.0928C11.5171 19.4792 10.0403 18.2891 8.28868 18.2891C5.28027 18.2891 3.4402 21.6347 5.09255 24.1774L2.5486 22.7625C1.78389 22.3373 0.87753 22.5531 0.344218 23.2886C-0.113902 23.9618 -0.027685 24.864 0.559811 25.4348L3.67513 28.4816C4.71534 29.449 5.23815 30.3535 5.2759 31.2466L5.18427 34.2158L2.95295 43.0679C2.73195 43.9545 3.24405 44.8428 4.12795 45.0896C4.32586 45.1469 4.45742 45.1758 4.66687 45.1758C5.27049 45.1758 5.83646 44.847 6.13827 44.287L10.7734 35.5858L12.2502 36.2364L12.1263 39.7958C12.0983 40.6214 12.6613 41.3305 13.4845 41.4978C14.3361 41.6746 15.1715 41.1799 15.4248 40.3482L16.5136 36.7926C17.3652 34.1995 16.4867 33.0623 15.6081 32.5642C15.5866 32.5529 15.5649 32.5422 15.5434 32.5319L12.8539 31.3774L13.8133 25.9235L16.9286 18.7756C17.3455 17.8224 16.8535 16.7227 15.8721 16.3963Z" fill="#897059"/>
</svg>
