<svg width="52" height="52" viewBox="0 0 52 52" fill="none" xmlns="http://www.w3.org/2000/svg">
<path d="M20.2169 23.7089V24.7804H19.5761C18.9921 24.7804 18.5168 25.2557 18.5168 25.8397V30.5816C18.5168 31.1656 18.9921 31.6409 19.5761 31.6409H26.7525C27.3365 31.6409 27.8118 31.1656 27.8118 30.5816V25.8397C27.8118 25.2557 27.3365 24.7804 26.7525 24.7804H26.1116V23.7089C26.1116 22.0839 24.7893 20.7615 23.1643 20.7615C21.5393 20.7615 20.2169 22.0839 20.2169 23.7089ZM26.592 30.4222H19.7345V25.9991H26.592V30.4222ZM24.8918 23.7089V24.7804H21.4347V23.7089C21.4347 22.7562 22.2096 21.9803 23.1632 21.9803C24.1169 21.9803 24.8918 22.7562 24.8918 23.7089ZM21.9577 27.6587C21.9577 26.9934 22.499 26.4531 23.1632 26.4531C23.8275 26.4531 24.3688 26.9944 24.3688 27.6587C24.3688 28.1015 24.1281 28.4874 23.7726 28.6976V29.2715C23.7726 29.6076 23.4994 29.8808 23.1632 29.8808C22.8271 29.8808 22.5539 29.6076 22.5539 29.2715V28.6976C22.1984 28.4874 21.9577 28.1015 21.9577 27.6587ZM50.2774 32.5448L45.9447 24.7144V17.7401C45.9447 16.3923 44.8489 15.2965 43.5011 15.2965H42.1656L24.9355 1.89732C23.8752 1.07264 22.4513 1.07264 21.391 1.89732L2.38762 16.6757C0.837779 17.8812 0.556451 20.1227 1.762 21.6736C2.46278 22.5754 3.51497 23.0477 4.57731 23.0477C5.27403 23.0477 5.97481 22.8436 6.58419 22.4262V40.1813C5.08817 40.2453 3.89075 41.4823 3.89075 42.9936C3.89075 44.5465 5.15418 45.8089 6.70606 45.8089H39.6194C40.3141 45.8089 40.9509 45.555 41.4425 45.1365C41.6212 45.7083 41.9787 46.2172 42.4723 46.5777C42.9862 46.9525 43.2574 47.4877 43.2574 48.1235V50.107C43.2574 50.4432 43.5306 50.7164 43.8668 50.7164H50.3749C50.7111 50.7164 50.9843 50.4432 50.9843 50.107V35.2829C50.9843 34.2866 50.7598 33.4172 50.2774 32.5448ZM44.725 17.739V24.8708V37.4462L41.346 34.0672C40.1262 32.8475 38.1407 32.8475 36.9199 34.0672C36.3308 34.6563 36.0058 35.4424 36.0058 36.2803C36.0058 37.1182 36.3298 37.9043 36.9199 38.4933C37.4561 39.0296 38.0157 39.578 38.5561 40.1082C38.7622 40.3103 38.9704 40.5144 39.1786 40.7196H31.3786C30.7032 40.7196 30.1538 40.1701 30.1538 39.4947V17.739C30.1538 17.0637 30.7032 16.5142 31.3786 16.5142H43.4991C44.1755 16.5142 44.725 17.0637 44.725 17.739ZM28.9361 32.8668C27.6858 34.2572 25.9786 35.353 23.8518 36.1229L23.1632 36.3727L22.4747 36.1229C16.4896 33.9545 13.9932 29.4441 14.8422 22.3337L14.9773 21.2023L16.0843 20.7951C18.3228 19.9724 20.3154 18.9507 22.0075 17.7573L23.1622 16.9428L24.317 17.7573C25.6739 18.714 27.2268 19.5601 28.935 20.2791V32.8668H28.9361ZM28.9361 17.739V18.9527C27.4959 18.3139 26.1807 17.5796 25.0208 16.762L23.5147 15.6997C23.3044 15.5514 23.0231 15.5514 22.8118 15.6997L21.3057 16.762C19.7 17.8934 17.8018 18.8664 15.6639 19.6515L14.2065 20.1867C13.9911 20.2659 13.8388 20.4589 13.8114 20.6864L13.6316 22.1885C12.7175 29.8372 15.5532 34.9112 22.0582 37.2685L22.955 37.5935C23.0221 37.6179 23.0922 37.6301 23.1622 37.6301C23.2323 37.6301 23.3024 37.6179 23.3694 37.5935L24.2652 37.2685C26.1106 36.6002 27.6736 35.6983 28.934 34.5801V39.4937C28.934 39.7314 28.9686 39.9599 29.0315 40.1772H7.80395V21.4877L22.1395 10.3392C22.7519 9.86287 23.5746 9.86287 24.188 10.3392L30.69 15.396C29.6775 15.6936 28.9361 16.631 28.9361 17.739ZM2.72481 20.9261C1.93161 19.9064 2.11645 18.4317 3.13614 17.6385L22.1395 2.85912C22.7519 2.38279 23.5746 2.38279 24.188 2.85912L40.18 15.2955H32.5476L24.9365 9.37639C23.8762 8.5517 22.4523 8.5517 21.392 9.37639L6.01239 21.3374C4.9927 22.1296 3.517 21.9458 2.72481 20.9261ZM39.6204 44.5912H6.70708C5.82653 44.5912 5.11051 43.8751 5.11051 42.9946C5.11051 42.114 5.82653 41.398 6.70708 41.398H29.8491C30.2686 41.7362 30.8007 41.9394 31.3807 41.9394H40.4075C40.5406 42.0734 40.6747 42.2075 40.8067 42.3415C40.9875 42.5254 41.1236 42.7265 41.216 42.9428C41.217 42.9601 41.218 42.9773 41.218 42.9956C41.217 43.8741 40.501 44.5912 39.6204 44.5912ZM49.7655 49.4987H44.4761V48.1245C44.4761 47.0987 44.0191 46.1999 43.1904 45.5946C42.778 45.294 42.5322 44.8105 42.5322 44.3017C42.5322 44.2316 42.5373 44.1605 42.5454 44.0905C42.6734 43.1134 42.3636 42.1892 41.673 41.4864C40.9306 40.7318 40.1567 39.9721 39.4082 39.2378C38.8699 38.7097 38.3123 38.1633 37.7801 37.6311C37.4216 37.2726 37.2236 36.7922 37.2236 36.2803C37.2236 35.7684 37.4216 35.288 37.7801 34.9295C38.5246 34.1851 39.7372 34.1851 40.4827 34.9295L44.1836 38.6304C44.4792 38.926 44.92 39.0144 45.3059 38.8539C45.6918 38.6934 45.9417 38.3207 45.9417 37.9022V27.2311L49.2079 33.1349C49.5918 33.8286 49.7625 34.4908 49.7625 35.2829V49.4987H49.7655ZM31.4447 23.3534C33.0443 21.7558 35.171 20.8753 37.4318 20.8753C39.6976 20.8753 41.8264 21.7589 43.428 23.3615C43.6657 23.6002 43.6657 23.9851 43.427 24.2238C43.3082 24.3426 43.1518 24.4015 42.9964 24.4015C42.84 24.4015 42.6846 24.3416 42.5647 24.2228C41.1936 22.8497 39.3706 22.094 37.4307 22.094C35.495 22.094 33.675 22.8476 32.3049 24.2157C32.0662 24.4533 31.6813 24.4533 31.4426 24.2147C31.206 23.977 31.207 23.5921 31.4447 23.3534ZM41.6354 25.1562C41.8731 25.3948 41.8731 25.7808 41.6344 26.0184C41.5156 26.1372 41.3602 26.1962 41.2038 26.1962C41.0474 26.1962 40.891 26.1362 40.7722 26.0174C39.8804 25.1237 38.6942 24.6311 37.4318 24.6311C36.1734 24.6311 34.9892 25.1206 34.0985 26.0103C33.8598 26.2479 33.4739 26.2479 33.2362 26.0093C32.9986 25.7706 32.9986 25.3857 33.2372 25.147C34.3585 24.0288 35.8474 23.4123 37.4318 23.4123C39.0202 23.4113 40.5132 24.0308 41.6354 25.1562ZM39.8429 26.9497C40.0805 27.1884 40.0795 27.5744 39.8408 27.812C39.722 27.9308 39.5666 27.9897 39.4112 27.9897C39.2548 27.9897 39.0984 27.9298 38.9796 27.81C38.5672 27.3956 38.0178 27.1671 37.4328 27.1671C36.8518 27.1671 36.3044 27.3936 35.8921 27.8039C35.6534 28.0415 35.2675 28.0405 35.0298 27.8019C34.7922 27.5632 34.7932 27.1772 35.0318 26.9396C35.6737 26.2997 36.5268 25.9483 37.4328 25.9483C38.3438 25.9473 39.2 26.3028 39.8429 26.9497ZM37.4399 28.008C36.6254 28.008 35.9632 28.6702 35.9632 29.4847C35.9632 30.2993 36.6254 30.9615 37.4399 30.9615C38.2544 30.9615 38.9166 30.2993 38.9166 29.4847C38.9166 28.6702 38.2544 28.008 37.4399 28.008ZM37.4399 29.7417C37.2977 29.7417 37.1819 29.6259 37.1819 29.4837C37.1819 29.3415 37.2977 29.2258 37.4399 29.2258C37.5821 29.2258 37.6979 29.3415 37.6979 29.4837C37.6979 29.6259 37.5821 29.7417 37.4399 29.7417Z" fill="#897059"/>
</svg>
