<svg width="52" height="44" viewBox="0 0 52 44" fill="none" xmlns="http://www.w3.org/2000/svg">
<path d="M46.1241 36.6116C45.2575 37.6516 43.9835 38.2409 42.6401 38.2409C41.2881 38.2409 40.0141 37.6429 39.1388 36.5942C38.9741 36.3949 38.7228 36.2909 38.4715 36.2909C38.2201 36.2909 37.9688 36.4122 37.8041 36.6029C36.9375 37.6429 35.6635 38.2322 34.3201 38.2322C32.9681 38.2322 31.6941 37.6342 30.8361 36.6029C30.6715 36.4036 30.4288 36.2822 30.1688 36.2822H30.1601C29.9001 36.2822 29.6575 36.3949 29.4928 36.5942C28.6261 37.6342 27.3608 38.2322 26.0001 38.2322C24.6481 38.2322 23.3741 37.6342 22.4815 36.5682C22.3168 36.3862 22.1088 36.2822 21.8228 36.2909C21.5715 36.2996 21.3375 36.4122 21.1728 36.6029C20.3061 37.6429 19.0321 38.2409 17.6801 38.2409C16.3281 38.2409 15.0541 37.6429 14.1961 36.6029C14.1701 36.5769 14.1355 36.5422 14.1095 36.5162C13.9361 36.3516 13.7021 36.2736 13.4681 36.2909C13.2341 36.3082 13.0088 36.4209 12.8615 36.6029C11.9948 37.6429 10.7208 38.2409 9.3688 38.2409C8.0168 38.2409 6.7428 37.6429 5.87613 36.6029C5.5728 36.2389 5.0268 36.1869 4.65413 36.4902C4.29013 36.7936 4.23813 37.3396 4.54147 37.7122C5.73747 39.1509 7.4968 39.9742 9.36013 39.9742C10.9115 39.9742 12.3761 39.4109 13.5201 38.4056C14.6555 39.4196 16.1288 39.9829 17.6801 39.9829C19.2228 39.9829 20.6875 39.4196 21.8401 38.4056C22.9841 39.4196 24.4488 39.9829 26.0001 39.9829C27.5601 39.9829 29.0421 39.4109 30.1601 38.4142C31.2955 39.4196 32.7688 39.9916 34.3201 39.9916C35.8628 39.9916 37.3275 39.4282 38.4801 38.4142C39.6241 39.4282 41.0975 40.0002 42.6488 40.0002C44.5121 40.0002 46.2715 39.1769 47.4761 37.7296C47.7795 37.3656 47.7275 36.8196 47.3548 36.5162C46.9821 36.1869 46.4275 36.2389 46.1241 36.6116Z" fill="#897059"/>
<path d="M46.1241 30.4065C45.2575 31.4465 43.9835 32.0358 42.6401 32.0358C41.2881 32.0358 40.0141 31.4378 39.1388 30.3891C38.9741 30.1898 38.7228 30.0858 38.4715 30.0858C38.2201 30.0858 37.9688 30.2071 37.8041 30.3978C36.9375 31.4378 35.6635 32.0271 34.3201 32.0271C32.9681 32.0271 31.6941 31.4291 30.8361 30.3978C30.6715 30.1985 30.4288 30.0771 30.1688 30.0771C29.8655 30.0771 29.6575 30.1898 29.4928 30.3891C28.6261 31.4291 27.3608 32.0271 26.0001 32.0271C24.6481 32.0271 23.3741 31.4292 22.4815 30.3632C22.3168 30.1812 22.1088 30.0772 21.8228 30.0858C21.5715 30.0945 21.3375 30.2071 21.1728 30.3978C20.3061 31.4378 19.0321 32.0358 17.6801 32.0358C16.3281 32.0358 15.0541 31.4378 14.1961 30.3978C14.1701 30.3718 14.1355 30.3371 14.1095 30.3111C13.9361 30.1551 13.7021 30.0685 13.4681 30.0858C13.2341 30.1032 13.0088 30.2158 12.8615 30.3978C11.9948 31.4378 10.7208 32.0358 9.3688 32.0358C8.0168 32.0358 6.7428 31.4378 5.87613 30.3978C5.5728 30.0338 5.0268 29.9818 4.65413 30.2851C4.29013 30.5885 4.23813 31.1345 4.54147 31.5071C5.73747 32.9458 7.4968 33.7692 9.36013 33.7692C10.9115 33.7692 12.3761 33.2058 13.5201 32.2005C14.6555 33.2145 16.1288 33.7778 17.6801 33.7778C19.2228 33.7778 20.6875 33.2145 21.8401 32.2005C22.9841 33.2145 24.4488 33.7778 26.0001 33.7778C27.5601 33.7778 29.0421 33.2058 30.1601 32.2091C31.2955 33.2145 32.7688 33.7865 34.3201 33.7865C35.8628 33.7865 37.3275 33.2231 38.4801 32.2091C39.6241 33.2231 41.0975 33.7951 42.6488 33.7951C44.5121 33.7951 46.2715 32.9718 47.4761 31.5245C47.7795 31.1605 47.7275 30.6145 47.3548 30.3111C46.9821 29.9818 46.4275 30.0425 46.1241 30.4065Z" fill="#897059"/>
<path d="M46.1239 24.201C45.2572 25.241 43.9832 25.8304 42.6399 25.8304C41.2879 25.8304 40.0139 25.2324 39.1386 24.1837C38.9739 23.9844 38.7226 23.8804 38.4712 23.8804C38.2199 23.8804 37.9686 24.0017 37.8039 24.1924C36.9372 25.2324 35.6632 25.8217 34.3112 25.8217C32.9939 25.8217 31.7546 25.2497 30.9139 24.2877L28.4526 16.947C28.4439 16.9124 28.4179 16.895 28.4006 16.8604C28.3832 16.817 28.3746 16.7737 28.3486 16.739L26.8579 14.5117C25.8179 12.9604 24.0239 12.0504 22.1606 12.137L16.5792 12.3884C15.2792 12.449 14.2566 13.515 14.2566 14.815C14.2566 15.4737 14.5166 16.0977 14.9932 16.557C15.4699 17.0164 16.0939 17.2677 16.7526 17.2417L22.5766 17.0857L23.4346 18.5677L13.8319 23.9497C13.7106 23.8977 13.5806 23.8717 13.4506 23.8804C13.2166 23.8977 12.9912 24.0104 12.8439 24.1924C11.9772 25.2324 10.7032 25.8304 9.35122 25.8304C7.99922 25.8304 6.72522 25.2324 5.85855 24.1924C5.55522 23.8284 5.00922 23.7764 4.63655 24.0797C4.27255 24.383 4.22055 24.929 4.52389 25.3017C5.71989 26.7404 7.47922 27.5637 9.34255 27.5637C10.6079 27.5637 11.8212 27.1824 12.8439 26.489H12.8526L13.5979 26.073C14.7246 27.035 16.1546 27.5724 17.6626 27.5724C19.2052 27.5724 20.6699 27.009 21.8226 25.995C22.9666 27.009 24.4312 27.5724 25.9826 27.5724C27.5426 27.5724 29.0246 27.0004 30.1426 26.0037C31.2779 27.009 32.7512 27.581 34.3026 27.581C35.8452 27.581 37.3099 27.0177 38.4626 26.0037C39.6066 27.0177 41.0799 27.5897 42.6312 27.5897C44.4946 27.5897 46.2539 26.7664 47.4586 25.319C47.7619 24.955 47.7099 24.409 47.3372 24.1057C46.9819 23.785 46.4272 23.837 46.1239 24.201ZM25.9912 25.8304C24.6392 25.8304 23.3652 25.2324 22.4726 24.1664C22.3079 23.9844 22.0999 23.8717 21.8139 23.889C21.5626 23.8977 21.3286 24.0104 21.1639 24.201C20.2972 25.241 19.0232 25.839 17.6712 25.839C16.8046 25.839 15.9812 25.5964 15.2619 25.1457L25.0552 19.6597C25.0552 19.6597 25.0639 19.6597 25.0639 19.651C25.1332 19.6077 25.1852 19.5557 25.2372 19.495C25.2632 19.469 25.2979 19.4517 25.3152 19.4257C25.3586 19.365 25.3846 19.2957 25.4192 19.2264C25.4366 19.1917 25.4539 19.1657 25.4712 19.131C25.4886 19.0617 25.4886 18.9924 25.4886 18.923C25.4886 18.8797 25.4972 18.845 25.4972 18.8017C25.4886 18.7324 25.4539 18.663 25.4279 18.5937C25.4106 18.559 25.4106 18.5157 25.3932 18.481V18.4724L23.8332 15.7857C23.6772 15.5084 23.3652 15.3264 23.0619 15.3524L16.7266 15.5257C16.5186 15.5257 16.3539 15.4564 16.2239 15.3264C16.0852 15.1964 16.0159 15.0144 16.0159 14.8237C16.0159 14.451 16.3106 14.139 16.6832 14.1217L22.2646 13.8704C23.5212 13.8097 24.7432 14.425 25.4452 15.4737L26.8666 17.597L29.1892 24.5304C28.3139 25.3624 27.1872 25.8304 25.9912 25.8304Z" fill="#897059"/>
<path d="M30.5068 17.9349C30.5068 20.6129 32.6822 22.7882 35.3602 22.7882C38.0382 22.7882 40.2135 20.6129 40.2135 17.9349C40.2135 15.2569 38.0382 13.0815 35.3602 13.0815C32.6822 13.0815 30.5068 15.2569 30.5068 17.9349ZM35.3602 14.8149C37.0762 14.8149 38.4802 16.2102 38.4802 17.9349C38.4802 19.6509 37.0848 21.0549 35.3602 21.0549C33.6355 21.0549 32.2402 19.6595 32.2402 17.9349C32.2402 16.2189 33.6442 14.8149 35.3602 14.8149Z" fill="#897059"/>
</svg>
