<svg width="52" height="52" viewBox="0 0 52 52" fill="none" xmlns="http://www.w3.org/2000/svg">
<path d="M43.4657 8.28369H40.9275C40.5486 8.28369 40.3087 8.52368 40.3087 8.78886H40.3086V16.997C40.3086 17.338 40.7127 17.5148 41.1294 17.5148C41.5335 17.5148 41.9502 17.3381 41.9502 16.997V14.0673H43.3647C45.0315 14.0673 46.3322 13.2717 46.3322 11.2008V11.1251C46.3322 9.05404 45.0694 8.28369 43.4657 8.28369ZM44.6905 11.3271C44.6905 12.3121 44.1854 12.7793 43.3646 12.7793H41.9502V9.72333H43.3646C44.1854 9.72333 44.6905 10.1906 44.6905 11.1756V11.3271Z" fill="#897059"/>
<path d="M29.7651 11.4924C27.3679 9.09511 24.1806 7.7749 20.7904 7.7749C17.4001 7.7749 14.2129 9.09511 11.8156 11.4924C11.5263 11.7816 11.5263 12.2506 11.8156 12.54C12.1049 12.8292 12.5739 12.8292 12.8632 12.54C14.9806 10.4226 17.7958 9.25649 20.7903 9.25649C23.7847 9.25649 26.6 10.4226 28.7174 12.54C28.8621 12.6846 29.0518 12.7569 29.2413 12.7569C29.4308 12.7569 29.6204 12.6846 29.7651 12.54C30.0544 12.2507 30.0544 11.7816 29.7651 11.4924Z" fill="#897059"/>
<path d="M26.7086 14.5488C23.445 11.2852 18.1348 11.2852 14.8713 14.5488C14.582 14.838 14.582 15.3071 14.8713 15.5964C15.1606 15.8856 15.6297 15.8856 15.9189 15.5964C18.6048 12.9106 22.9751 12.9106 25.661 15.5964C25.8056 15.741 25.9951 15.8133 26.1847 15.8133C26.3742 15.8133 26.5638 15.741 26.7086 15.5964C26.9978 15.3071 26.9978 14.838 26.7086 14.5488Z" fill="#897059"/>
<path d="M23.701 17.5564C22.0959 15.9513 19.4842 15.9513 17.8791 17.5564C17.5898 17.8456 17.5898 18.3146 17.8791 18.604C18.1684 18.8933 18.6375 18.8932 18.9267 18.604C19.9542 17.5766 21.626 17.5766 22.6535 18.604C22.7981 18.7487 22.9877 18.8209 23.1772 18.8209C23.3667 18.8209 23.5563 18.7486 23.701 18.604C23.9903 18.3146 23.9903 17.8457 23.701 17.5564Z" fill="#897059"/>
<path d="M36.4532 31.984C36.1327 31.8076 35.8164 31.6144 35.5134 31.4097L30.6135 28.0996C29.1264 27.0949 27.3918 26.564 25.5972 26.564H16.6037C14.2165 26.564 11.9704 27.4919 10.279 29.1769C9.40959 30.0431 8.41916 30.7676 7.33518 31.3305C6.69412 31.6634 6.2959 32.3186 6.2959 33.0404C6.2959 34.1033 7.1606 34.968 8.22355 34.968H11.2897C11.6988 34.968 12.0305 34.6363 12.0305 34.2272C12.0305 33.8181 11.6988 33.4864 11.2897 33.4864H8.22355C7.97756 33.4864 7.77738 33.2863 7.77738 33.0403C7.77738 32.8736 7.8695 32.7223 8.01788 32.6453C9.23572 32.013 10.3483 31.1991 11.3245 30.2264C12.7363 28.82 14.6111 28.0455 16.6036 28.0455H18.6171V33.4864H16.1561C15.747 33.4864 15.4153 33.8181 15.4153 34.2272C15.4153 34.6363 15.747 34.968 16.1561 34.968H36.4683C37.0772 34.968 37.5727 34.4726 37.5727 33.8636C37.5727 33.0838 37.1437 32.3636 36.4532 31.984ZM20.0989 33.4865V28.0456H25.5973C27.0952 28.0456 28.5431 28.4888 29.7843 29.3273L34.6841 32.6374C35.0244 32.8672 35.3793 33.0841 35.7395 33.2822C35.8327 33.3335 35.9108 33.404 35.9695 33.4865H20.0989Z" fill="#897059"/>
<path d="M21.9343 36.0938H19.6461C19.237 36.0938 18.9053 36.4255 18.9053 36.8345C18.9053 37.2436 19.237 37.5753 19.6461 37.5753H21.9343C22.3434 37.5753 22.6751 37.2436 22.6751 36.8345C22.6751 36.4255 22.3434 36.0938 21.9343 36.0938Z" fill="#897059"/>
<path d="M51.3609 35.4723L51.1269 35.0839C50.245 33.6205 48.7781 32.5901 47.1025 32.2568L45.19 31.8764V22.1826H50.1393C51.1584 22.1826 51.9873 21.3536 51.9873 20.3346V5.90759C51.9873 4.88852 51.1582 4.05957 50.1393 4.05957H35.7123C34.6932 4.05957 33.8643 4.88862 33.8643 5.90759V11.3803C33.8643 11.7894 34.1959 12.1211 34.605 12.1211C35.0142 12.1211 35.3458 11.7894 35.3458 11.3803V5.90759C35.3458 5.70549 35.5103 5.54106 35.7124 5.54106H50.1395C50.3416 5.54106 50.506 5.70549 50.506 5.90759V20.3347C50.506 20.5368 50.3416 20.7012 50.1395 20.7012H35.7123C35.5102 20.7012 35.3457 20.5368 35.3457 20.3347V16.1961C35.3457 15.787 35.0141 15.4553 34.6049 15.4553C34.1958 15.4553 33.8642 15.787 33.8642 16.1961V20.3347C33.8642 21.3538 34.6932 22.1827 35.7122 22.1827H41.3246V31.1079L40.3415 30.9124C38.9846 30.6425 37.6618 29.8236 36.7847 29.231L31.8849 25.921C30.0207 24.6617 27.8464 23.9961 25.5968 23.9961H16.6035C13.6109 23.9961 10.7953 25.1593 8.67543 27.2713C7.334 28.6077 5.64543 29.5193 3.79223 29.9074L2.72867 30.1302C1.14755 30.4612 0 31.8742 0 33.4896V40.664C0 41.5197 0.505271 42.2974 1.2874 42.6449L4.23798 43.9563C4.41643 44.8894 4.86594 45.7804 5.58683 46.5013C6.54486 47.4593 7.80332 47.9384 9.06188 47.9384C10.3204 47.9384 11.5788 47.4593 12.5369 46.5013C13.1531 45.8851 13.5699 45.1444 13.7898 44.3596H38.3918C38.6117 45.1444 39.0286 45.8851 39.6448 46.5013C40.573 47.4294 41.807 47.9407 43.1198 47.9407C44.4325 47.9407 45.6667 47.4295 46.595 46.5013C47.2111 45.8851 47.628 45.1444 47.8478 44.3596H49.2531C50.7677 44.3596 52 43.1274 52 41.6128V37.7705C51.9998 36.9606 51.7788 36.166 51.3609 35.4723ZM42.8062 22.1826H43.7085V31.5818L42.8062 31.4023V22.1826ZM11.4892 45.4537C10.8408 46.1021 9.97878 46.4592 9.06178 46.4592C8.14477 46.4592 7.28271 46.1021 6.63434 45.4537C5.59424 44.4137 5.36288 42.867 5.93915 41.6009C5.94382 41.5907 5.94829 41.5805 5.95296 41.5703C5.97053 41.5327 5.98912 41.4956 6.00811 41.4586C6.01705 41.4411 6.02598 41.4238 6.03533 41.4065C6.05249 41.3744 6.07037 41.3425 6.08865 41.3108C6.10124 41.289 6.11414 41.2674 6.12724 41.2458C6.1442 41.2179 6.16137 41.1901 6.17924 41.1625C6.19539 41.1377 6.21205 41.1131 6.22891 41.0886C6.24556 41.0643 6.26212 41.04 6.27938 41.0161C6.29919 40.9888 6.3198 40.962 6.34052 40.9351C6.35667 40.9142 6.37241 40.8931 6.38907 40.8725C6.41344 40.8423 6.43894 40.8129 6.46433 40.7834C6.47885 40.7667 6.49276 40.7495 6.50759 40.7329C6.54537 40.691 6.58427 40.6499 6.62429 40.6095C6.62774 40.6061 6.63089 40.6024 6.63434 40.599C6.64196 40.5914 6.64998 40.5842 6.6577 40.5767C6.69162 40.5434 6.72575 40.5105 6.76058 40.4789C6.76962 40.4707 6.77917 40.4631 6.78831 40.455C6.82304 40.4242 6.85798 40.3936 6.89373 40.3645C6.89708 40.3617 6.90064 40.3592 6.90399 40.3564C8.1596 39.3403 9.97055 39.3415 11.2246 40.3605C11.2261 40.3617 11.2276 40.3627 11.2291 40.364C11.2674 40.3951 11.3049 40.4278 11.3422 40.461C11.3489 40.4668 11.3558 40.4724 11.3624 40.4784C11.4054 40.5173 11.4477 40.5574 11.4891 40.5989C11.5338 40.6436 11.5769 40.6896 11.6187 40.7362C11.6371 40.7567 11.6545 40.7777 11.6722 40.7985C11.694 40.8239 11.7158 40.8494 11.7367 40.8753C11.7602 40.9045 11.7828 40.9341 11.8052 40.9638C11.8178 40.9803 11.8303 40.997 11.8424 41.0138C11.8696 41.0511 11.896 41.0889 11.9215 41.1272C11.9258 41.1337 11.9301 41.1403 11.9344 41.1468C12.8058 42.4778 12.6575 44.2854 11.4892 45.4537ZM45.5471 45.4537C44.8987 46.1021 44.0366 46.4592 43.1196 46.4592C42.2026 46.4592 41.3406 46.1021 40.6923 45.4537C39.5238 44.2854 39.3755 42.4775 40.247 41.1466C40.2512 41.1402 40.2554 41.1338 40.2596 41.1275C40.2851 41.0891 40.3116 41.0512 40.3388 41.0137C40.3509 40.997 40.3633 40.9805 40.3758 40.9642C40.3983 40.9343 40.421 40.9046 40.4447 40.8752C40.4655 40.8495 40.487 40.8243 40.5087 40.7992C40.5266 40.7781 40.5442 40.7568 40.5628 40.7362C40.6046 40.6896 40.6477 40.6437 40.6924 40.599C41.3408 39.9506 42.2027 39.5935 43.1197 39.5935C44.0367 39.5935 44.8988 39.9506 45.5471 40.599C45.5918 40.6437 45.6349 40.6897 45.6767 40.7363C45.6952 40.7568 45.7126 40.7779 45.7305 40.7989C45.7522 40.8241 45.7739 40.8495 45.7948 40.8753C45.8183 40.9046 45.841 40.9342 45.8634 40.964C45.8759 40.9805 45.8884 40.9971 45.9006 41.0139C45.9277 41.0513 45.9542 41.089 45.9796 41.1273C45.984 41.1338 45.9882 41.1403 45.9925 41.1468C46.8637 42.4777 46.7154 44.2855 45.5471 45.4537ZM50.5185 41.6128H50.5183C50.5183 42.3105 49.9507 42.8781 49.2529 42.8781H48.0334C48.0043 41.8037 47.6251 40.7786 46.9426 39.9382C46.938 39.9325 46.9337 39.9266 46.929 39.9209C46.8867 39.8695 46.843 39.819 46.7985 39.7688C46.7871 39.756 46.7764 39.7428 46.7649 39.73C46.7178 39.6781 46.669 39.6272 46.6194 39.5771C46.611 39.5685 46.6033 39.5596 46.5948 39.5512C45.9565 38.913 45.1738 38.472 44.3204 38.2587C43.9324 38.1617 43.5299 38.1118 43.1196 38.1118C42.7915 38.1118 42.4682 38.1438 42.1533 38.2062C41.2089 38.3935 40.3408 38.8551 39.6446 39.5512C39.6362 39.5595 39.6286 39.5682 39.6204 39.5767C39.5706 39.6271 39.5217 39.6781 39.4744 39.7302C39.4633 39.7425 39.4529 39.7553 39.4419 39.7677C39.3971 39.8183 39.3528 39.8693 39.3102 39.9213C39.306 39.9264 39.302 39.9318 39.2977 39.9371C38.6147 40.7776 38.2351 41.8033 38.2059 42.8782H13.9755C13.9463 41.802 13.5659 40.7751 12.8811 39.9338C12.878 39.9299 12.8749 39.9259 12.8718 39.922C12.8271 39.8673 12.7807 39.8138 12.7334 39.7608C12.7247 39.751 12.7166 39.741 12.7078 39.7312C12.6524 39.6702 12.5955 39.6101 12.5367 39.5513C12.2972 39.3118 12.0389 39.1022 11.7666 38.9225C10.9494 38.3836 10.0056 38.1142 9.06178 38.1142C7.80332 38.1142 6.54476 38.5932 5.58673 39.5513C5.53199 39.606 5.47907 39.6622 5.42728 39.719C5.41194 39.7359 5.39721 39.7531 5.38208 39.77C5.34552 39.8114 5.30956 39.8531 5.27453 39.8954C5.25899 39.9141 5.24345 39.933 5.22821 39.9521C5.19196 39.9973 5.15661 40.043 5.12208 40.0892C5.11132 40.1037 5.10025 40.1178 5.08978 40.1323C4.99696 40.2593 4.91083 40.3904 4.83121 40.5247C4.82897 40.5285 4.82684 40.5323 4.82461 40.5361C4.78571 40.6022 4.74843 40.6693 4.71279 40.737C4.71177 40.7389 4.71075 40.741 4.70964 40.7429C4.45137 41.2343 4.27769 41.7659 4.19807 42.3173L1.88926 41.2911C1.64165 41.181 1.48169 40.9348 1.48169 40.664V33.4896C1.48169 32.5714 2.13402 31.7684 3.03275 31.5801L4.0963 31.3573C6.23114 30.9102 8.17626 29.8601 9.72142 28.3207C11.5617 26.4872 14.0059 25.4775 16.6038 25.4775H25.5971C27.55 25.4775 29.4376 26.0554 31.0559 27.1485L35.9556 30.4585C36.9388 31.1228 38.4333 32.0432 40.0527 32.3653L46.8137 33.7098C48.0814 33.962 49.191 34.7415 49.8582 35.8485L50.0922 36.2369C50.3711 36.6997 50.5185 37.2301 50.5185 37.7705V41.6128Z" fill="#897059"/>
<path d="M10.6519 41.4361C10.2269 41.0112 9.66223 40.7773 9.06149 40.7773C8.46075 40.7773 7.89596 41.0113 7.47123 41.4361C7.0465 41.8608 6.8125 42.4256 6.8125 43.0263C6.8125 43.6271 7.0465 44.1919 7.47123 44.6166C7.89596 45.0413 8.46075 45.2753 9.06159 45.2753C9.66233 45.2753 10.2271 45.0414 10.6519 44.6166C11.5287 43.7397 11.5287 42.313 10.6519 41.4361ZM9.60414 43.569C9.45921 43.7139 9.26644 43.7937 9.06149 43.7937C8.85644 43.7937 8.66377 43.7139 8.51884 43.5689C8.37392 43.4239 8.29399 43.2313 8.29399 43.0262C8.29399 42.8212 8.37381 42.6285 8.51884 42.4836C8.66377 42.3387 8.85644 42.2587 9.06149 42.2587C9.26644 42.2587 9.45921 42.3386 9.60414 42.4836C9.90334 42.7829 9.90334 43.2698 9.60414 43.569Z" fill="#897059"/>
<path d="M44.7104 41.4362C44.2856 41.0113 43.7209 40.7773 43.12 40.7773C42.5193 40.7773 41.9546 41.0112 41.5297 41.4361C40.6529 42.313 40.6529 43.7397 41.5297 44.6166C41.9545 45.0414 42.5193 45.2753 43.12 45.2753C43.7209 45.2753 44.2855 45.0414 44.7103 44.6167C45.1351 44.192 45.369 43.6272 45.369 43.0264C45.369 42.4257 45.1351 41.8609 44.7104 41.4362ZM43.6627 43.5691C43.5177 43.714 43.3251 43.7938 43.12 43.7938C42.9151 43.7938 42.7223 43.714 42.5774 43.5691C42.2782 43.2699 42.2782 42.783 42.5774 42.4838C42.7223 42.3389 42.9151 42.2589 43.12 42.2589C43.3251 42.2589 43.5177 42.3388 43.6628 42.4838C43.8077 42.6287 43.8875 42.8214 43.8875 43.0264C43.8875 43.2313 43.8078 43.4241 43.6627 43.5691Z" fill="#897059"/>
</svg>
