<svg width="50" height="44" viewBox="0 0 50 44" fill="none" xmlns="http://www.w3.org/2000/svg">
<path d="M48.8672 39.8588H42.4982V37.8093H44.0155C45.7035 37.8093 47.0777 36.4362 47.0777 34.7472V29.2953C47.0777 27.8155 46.0224 26.5775 44.6249 26.2941V23.7307C44.6249 22.0173 43.2305 20.6229 41.5171 20.6229H23.8808C22.1674 20.6229 20.773 22.0173 20.773 23.7307V26.2941C20.317 26.3865 19.8975 26.5805 19.539 26.8517V10.8597H21.0756V15.1822C21.0756 15.5183 21.3488 15.7915 21.685 15.7915C22.0212 15.7915 22.2944 15.5183 22.2944 15.1822V10.8597H23.9062C24.091 10.8597 24.2667 10.7754 24.3825 10.6312C24.4983 10.4869 24.542 10.297 24.5013 10.1162L22.4711 1.10764C22.4081 0.829355 22.1613 0.632324 21.877 0.632324H15.9823C15.6969 0.632324 15.4501 0.829355 15.3881 1.10764L13.3579 10.1172C13.3173 10.298 13.3609 10.4869 13.4767 10.6322C13.5925 10.7764 13.7672 10.8607 13.953 10.8607H18.3213V29.2963V34.7482C18.3213 36.4361 19.6944 37.8103 21.3834 37.8103H22.9007V39.8598H16.9024V28.432C16.9024 28.0958 16.6292 27.8226 16.293 27.8226H12.5484L14.4131 23.295C14.4903 23.1071 14.469 22.8928 14.3562 22.7242C14.2435 22.5556 14.0536 22.454 13.8495 22.454H13.7103C13.9784 22.255 14.2313 22.0336 14.4649 21.7858C15.6258 20.5558 16.1763 18.8862 15.9772 17.2043C15.9427 16.9118 15.703 16.6853 15.4084 16.668C14.2435 16.5979 13.1111 16.8793 12.1351 17.4683C11.8284 16.3745 11.1966 15.3873 10.3029 14.6398C10.0764 14.4509 9.74734 14.4509 9.52086 14.6398C8.62711 15.3873 7.99539 16.3745 7.68867 17.4683C6.71164 16.8803 5.58023 16.5979 4.41531 16.668C4.12078 16.6853 3.88109 16.9118 3.84656 17.2043C3.6475 18.8851 4.19797 20.5558 5.35883 21.7858C5.59242 22.0326 5.84531 22.255 6.11344 22.454H5.9743C5.77117 22.454 5.58125 22.5556 5.4675 22.7242C5.35375 22.8928 5.33344 23.1071 5.41062 23.295L7.27531 27.8226H3.53172C3.19555 27.8226 2.92234 28.0958 2.92234 28.432V39.8588H1.13281C0.796641 39.8588 0.523438 40.132 0.523438 40.4682V42.7574C0.523438 43.0936 0.796641 43.3668 1.13281 43.3668H48.8672C49.2034 43.3668 49.4766 43.0936 49.4766 42.7574V40.4682C49.4766 40.132 49.2034 39.8588 48.8672 39.8588ZM16.4698 1.85209H21.3895L23.1445 9.64193H14.7137L16.4698 1.85209ZM41.2795 39.8588H40.3908L38.8948 37.8093H41.2805V39.8588H41.2795ZM37.3855 37.8093L38.8816 39.8588H26.5163L28.0123 37.8093H37.3855ZM23.8808 21.8437H41.5181C42.5591 21.8437 43.4072 22.6907 43.4072 23.7327V26.2962C42.0097 26.5795 40.9545 27.8176 40.9545 29.2973V31.6871H24.4445V29.2973C24.4445 27.8176 23.3892 26.5795 21.9917 26.2962V23.7327C21.9917 22.6907 22.8387 21.8437 23.8808 21.8437ZM19.539 34.7482V29.2963C19.539 28.2797 20.3657 27.453 21.3823 27.453C22.399 27.453 23.2257 28.2797 23.2257 29.2963V32.2955C23.2257 32.6316 23.4989 32.9048 23.8351 32.9048H41.5638C41.9 32.9048 42.1732 32.6316 42.1732 32.2955V29.2963C42.1732 28.2797 42.9999 27.453 44.0166 27.453C45.0332 27.453 45.8599 28.2797 45.8599 29.2963V34.7482C45.8599 35.7648 45.0332 36.5915 44.0166 36.5915H21.3823C20.3657 36.5905 19.539 35.7638 19.539 34.7482ZM24.1184 37.8093H26.5041L25.0081 39.8588H24.1195V37.8093H24.1184ZM14.798 17.8837C14.797 19.0192 14.3664 20.114 13.5783 20.9499C12.9689 21.5958 12.1909 22.0366 11.347 22.2347C11.9929 21.2962 12.3473 20.176 12.3473 19.0101C12.3473 18.94 12.3443 18.8699 12.3413 18.8008C13.0532 18.2524 13.9033 17.9355 14.798 17.8837ZM9.91187 15.9429C10.6898 16.7696 11.1276 17.8604 11.1276 19.0101C11.1276 20.1587 10.6898 21.2505 9.91187 22.0772C9.13391 21.2505 8.69617 20.1597 8.69617 19.0101C8.69617 17.8604 9.13391 16.7696 9.91187 15.9429ZM5.0257 17.8837C5.92047 17.9355 6.77156 18.2524 7.4825 18.8008C7.47945 18.8709 7.47641 18.94 7.47641 19.0101C7.47641 20.177 7.83086 21.2962 8.4768 22.2347C7.6318 22.0366 6.85484 21.5958 6.24445 20.9489C5.45734 20.113 5.02672 19.0192 5.0257 17.8837ZM6.88531 23.6728H12.9395L11.2302 27.8237H8.59461L6.88531 23.6728ZM15.6837 29.0414V35.1219H4.14109V29.0414H15.6837ZM4.14109 36.3407H15.6837V39.8588H4.14109V36.3407ZM48.2578 42.148H1.74219V41.0776H48.2578V42.148ZM7.63484 32.0822C7.63484 31.746 7.90805 31.4728 8.24422 31.4728H11.5795C11.9157 31.4728 12.1889 31.746 12.1889 32.0822C12.1889 32.4183 11.9157 32.6915 11.5795 32.6915H8.24422C7.90805 32.6915 7.63484 32.4183 7.63484 32.0822Z" fill="#897059"/>
</svg>
