<svg width="52" height="52" viewBox="0 0 52 52" fill="none" xmlns="http://www.w3.org/2000/svg">
<path d="M33.6981 35.1567C32.8317 35.1567 32.127 35.8615 32.127 36.7278C32.127 37.5941 32.8317 38.299 33.6981 38.299C34.5645 38.299 35.2693 37.5941 35.2693 36.7278C35.2693 35.8615 34.5645 35.1567 33.6981 35.1567ZM33.6981 37.1818C33.4478 37.1818 33.2441 36.9782 33.2441 36.7278C33.2441 36.4776 33.4478 36.2739 33.6981 36.2739C33.9484 36.2739 34.1521 36.4776 34.1521 36.7278C34.1521 36.9782 33.9484 37.1818 33.6981 37.1818Z" fill="#897059"/>
<path d="M47.8082 28.0708H45.0469C43.4982 28.0708 42.2382 29.3308 42.2382 30.8795V33.4207H36.3514L35.6554 31.5085L36.7727 28.2609L37.8025 27.8897C37.8133 27.8859 37.824 27.8817 37.8345 27.8771C40.0186 26.9342 41.2476 24.6276 41.3219 21.7754L42.5364 21.3334C43.8972 20.838 44.6086 19.3676 44.156 17.9855C44.0904 17.7855 44.0211 17.5852 43.9502 17.3905C41.3114 10.1404 36.4348 6.15356 31.8161 7.47123C31.8032 7.47488 31.7905 7.47897 31.778 7.48356L8.94134 15.807L5.40014 16.9729C5.39467 16.9748 5.38923 16.9766 5.38376 16.9786C4.37633 17.3453 3.72271 18.0388 3.49371 18.9843C3.05217 20.8073 4.17897 23.6327 6.84287 27.382C7.35595 28.1041 7.8792 28.793 8.37185 29.4166C9.21383 31.4061 10.4699 33.0904 11.9591 34.2066C13.1602 35.1068 14.4148 35.569 15.6089 35.569C16.1293 35.569 17.4831 35.2139 17.6198 35.1642L25.8609 32.1938L28.8444 33.9875L30.3686 38.1754C30.9038 39.6455 32.297 40.5602 33.7778 40.5601C34.1884 40.5601 34.606 40.4897 35.0137 40.3413C35.2892 40.2411 35.5446 40.1099 35.7787 39.9544H42.2382V42.4956C42.2382 44.0443 43.4982 45.3043 45.0469 45.3043H47.8082C48.1167 45.3043 48.3668 45.0541 48.3668 44.7457V28.6294C48.3668 28.3209 48.1167 28.0708 47.8082 28.0708ZM32.1413 8.54019C36.1564 7.41139 40.4782 11.1176 42.9004 17.7727C42.9673 17.9563 43.0325 18.145 43.0943 18.3334C43.3582 19.139 42.9453 19.9956 42.1543 20.2836L20.3507 28.2194C19.046 28.6941 17.602 28.067 17.063 26.7915C16.708 25.9514 15.4866 23.1291 14.6732 22.0837C12.6265 19.4529 10.3841 17.8235 8.13832 17.2888L32.1413 8.54019ZM16.7356 29.6002C16.6102 30.5658 16.2373 31.2291 15.7126 31.42C14.6538 31.8059 12.7553 30.2608 11.7245 27.4287C10.6937 24.5964 11.1551 22.1931 12.214 21.8077C12.3216 21.7686 12.4377 21.7493 12.5609 21.7493C12.7014 21.7493 12.8509 21.7749 13.0067 21.824C13.2707 22.1216 13.5325 22.4369 13.7915 22.7698C14.2765 23.3932 15.1358 25.1009 16.0339 27.2264C16.2132 27.6506 16.4635 28.0236 16.7639 28.3394C16.7952 28.7824 16.7868 29.2066 16.7356 29.6002ZM7.54755 22.0857C7.24287 23.3901 7.22062 24.8426 7.46746 26.3242C5.6679 23.7182 4.17775 20.9054 4.57959 19.2471C4.66519 18.8937 4.83594 18.6133 5.1024 18.3928C6.45515 18.0407 7.86542 18.2123 9.27133 18.8737C8.45839 19.6379 7.86384 20.7316 7.54755 22.0857ZM19.2912 30.8879C18.8897 32.6068 17.9852 33.8021 16.7441 34.2538C15.5029 34.7057 14.0415 34.3714 12.6292 33.3127C11.1466 32.2014 9.91307 30.4438 9.15592 28.3636C7.80532 24.6525 8.35079 20.9432 10.3116 19.4525C10.8571 19.8041 11.3996 20.2288 11.9354 20.7253C11.9008 20.7358 11.8661 20.7454 11.8319 20.7579C9.9878 21.4291 9.4795 24.527 10.6747 27.8107C11.717 30.6744 13.6609 32.597 15.3642 32.597C15.614 32.597 15.8588 32.5557 16.0947 32.4698C17.0388 32.1262 17.6599 31.1582 17.8436 29.7442C17.8686 29.5516 17.8841 29.3528 17.8923 29.1498C18.3779 29.3748 18.9116 29.4953 19.4569 29.4953C19.4688 29.4953 19.4809 29.4946 19.4928 29.4945C19.4622 29.9754 19.3954 30.4419 19.2912 30.8879ZM19.5155 33.2934C19.8954 32.6806 20.1883 31.9591 20.3792 31.142C20.5158 30.557 20.5942 29.9417 20.6189 29.3079C20.6569 29.2954 20.6949 29.283 20.7328 29.2692L40.1752 22.1927C40.1436 22.6054 40.0854 23.0055 39.9967 23.3873C39.609 25.0574 38.6896 26.2845 37.407 26.8448L19.5155 33.2934ZM34.6316 39.2915C33.3323 39.7647 31.8912 39.0921 31.4184 37.7933L29.8265 33.4197C29.7827 33.2994 29.6991 33.1979 29.5894 33.132L27.2165 31.7053L35.4241 28.747L34.5347 31.3321C34.4931 31.453 34.4943 31.5846 34.538 31.7048L36.1299 36.0784C36.6026 37.3774 35.9304 38.8188 34.6316 39.2915ZM42.2382 38.8373H36.8564C37.4171 37.9262 37.5731 36.7774 37.1796 35.6964L36.758 34.5379H42.2382V38.8373ZM47.2496 44.1871H45.0469C44.1142 44.1871 43.3554 43.4283 43.3554 42.4956V30.8796C43.3554 29.9468 44.1142 29.188 45.0469 29.188H47.2496V44.1871Z" fill="#897059"/>
<path d="M15.3179 26.1207C14.8854 24.9328 13.9771 24.2484 13.2048 24.5298C12.4326 24.8109 12.1763 25.9187 12.6087 27.1069C12.791 27.6077 13.0736 28.0475 13.4042 28.345C13.7074 28.6178 14.0429 28.7605 14.364 28.7605C14.4862 28.7605 14.6063 28.7398 14.7218 28.6978C15.494 28.4168 15.7502 27.3088 15.3179 26.1207C15.3179 26.1208 15.3178 26.1207 15.3179 26.1207ZM14.3361 27.6381C14.2041 27.5958 13.8716 27.3104 13.6584 26.7247C13.4454 26.1391 13.5165 25.7067 13.5905 25.5894C13.7225 25.6318 14.0549 25.9173 14.2681 26.5028C14.4812 27.0885 14.41 27.5209 14.3361 27.6381Z" fill="#897059"/>
</svg>
