<svg width="48" height="43" viewBox="0 0 48 43" fill="none" xmlns="http://www.w3.org/2000/svg">
<path d="M43.6934 35.6048C43.4395 35.3915 43.1348 35.2798 42.7996 35.2595C41.5504 35.2087 40.3215 35.1782 39.1129 35.1376C39.5699 34.6907 39.6512 33.929 39.0824 33.5634C38.3715 33.015 36.5231 32.9134 35.7309 32.5275C35.5176 32.3954 35.2129 32.2025 34.8371 31.9689C33.0598 30.8618 29.759 28.8103 28.9465 28.1603C28.0223 27.4189 25.5848 25.4689 23.3301 27.1345C22.4363 27.7946 21.5629 28.5259 20.6285 29.0845C20.3035 28.8407 19.8871 28.729 19.4199 28.7696C18.2113 28.861 16.1598 28.8407 14.7379 28.7798C14.7176 28.6782 14.6668 28.5767 14.5957 28.4954C14.1488 27.9368 13.9864 27.8048 13.9254 27.1751C13.8543 26.5657 13.7324 25.54 12.3004 25.215C10.5028 24.7985 10.0153 24.3212 9.99494 24.047C10.2793 23.9353 10.6653 23.9353 10.9496 23.7829C11.1832 23.7626 11.8535 22.9501 11.3559 20.9798C10.7059 19.761 11.6606 18.4001 9.45666 17.2728C5.62776 15.6884 3.70823 19.3142 4.17541 22.7267C3.88088 21.8735 3.13948 21.2032 2.19494 21.4368C1.28088 21.64 0.7426 22.747 1.16916 23.59C2.51994 26.454 3.94182 29.1251 5.48557 31.6845L4.63244 35.2392C3.6676 35.2595 2.80432 35.2696 2.24573 35.29C1.92073 35.3001 1.61604 35.422 1.35198 35.6251C0.854319 36.0314 0.681663 36.6915 0.915257 37.2907C1.13869 37.8798 1.70744 38.2556 2.33713 38.2251C3.3426 38.1946 6.27776 38.154 7.80119 38.1337C7.4051 38.8345 7.02932 39.5759 6.69416 40.3681C6.54182 40.7337 6.53166 41.1501 6.68401 41.5259C6.90744 42.0946 7.46604 42.4806 8.08557 42.4704C8.7051 42.4704 9.25354 42.1048 9.47697 41.5564C10.0457 40.2259 10.716 39.0579 11.4778 38.0525C18.7699 37.89 25.3817 37.8595 31.709 37.9306C33.3239 39.0884 34.8981 40.4493 36.4114 42.0032C36.6856 42.2978 37.0918 42.4704 37.5082 42.4704C38.3309 42.4806 39.0215 41.79 39.0215 40.9775C39.0317 40.5712 38.8793 40.1853 38.5949 39.9009C37.9551 39.2407 37.3051 38.611 36.6348 38.0118C38.7879 38.0626 40.7887 38.1235 42.7387 38.2048C44.0996 38.2353 44.7496 36.4579 43.6934 35.6048ZM29.5864 33.1064C30.8559 33.5228 32.2778 34.3556 33.2832 35.0157C33.1207 35.0157 32.9582 35.0056 32.7957 35.0056C31.7395 34.2845 30.6629 33.6548 29.5864 33.1064ZM23.259 28.7189C24.9653 27.0939 26.3465 27.6423 28.1848 29.1251C28.9668 29.7751 32.8262 32.172 35.091 33.5735C35.802 34.0103 37.2746 34.1118 38.1176 34.4368C37.8942 34.6298 37.5082 34.8329 37.3051 34.8329H35.1723C34.5121 34.3454 32.0543 32.6087 29.891 31.9282C28.1543 31.39 26.0012 29.5009 25.9809 29.4806C25.7371 29.2673 25.3512 29.2775 25.1278 29.5212C25.1176 29.5314 24.5082 30.1915 23.7363 30.9939C22.9645 30.8314 22.1926 30.7196 21.441 30.6689C21.4207 30.4657 21.3801 30.2728 21.3192 30.09C21.9895 29.6837 22.609 29.2064 23.259 28.7189ZM27.7379 32.2431C26.8543 31.8775 25.9707 31.5728 25.0973 31.329C25.3004 31.1157 25.4832 30.9228 25.6254 30.7704C26.0926 31.1462 26.8746 31.7353 27.7379 32.2431ZM26.3668 34.9446C24.5387 34.9446 22.6903 34.9446 20.8215 34.965C21.502 34.6501 22.1114 34.2743 22.5887 33.8478C23.8176 34.061 25.0871 34.4267 26.3668 34.9446ZM15.266 34.8025C16.8606 33.9595 18.8207 33.5837 20.7098 33.6548C19.1965 34.4775 17.0332 34.9345 15.266 34.8025ZM8.33948 30.5064C6.20666 26.9314 7.26291 25.3978 6.52151 24.9915C4.45979 23.6204 4.93713 16.6126 8.91838 18.3595C9.49729 18.6439 9.80197 19.0501 9.80197 19.304C9.80197 20.4009 10.0965 21.1626 10.2285 21.447C10.2895 21.9345 10.3098 22.4728 10.2692 22.7267C9.77151 22.8384 8.72541 22.9501 8.77619 24.1689C8.85744 25.1845 9.94416 25.9462 12.0262 26.4134C12.6153 26.5454 12.6457 26.7587 12.7067 27.3274C12.7473 27.6931 12.8184 28.1501 13.0723 28.5056C12.7168 28.2517 12.0465 27.6728 10.7871 26.3118C10.5637 26.0681 10.1778 26.0478 9.92385 26.2814C9.6801 26.5048 9.65979 26.8907 9.89338 27.1446C11.9145 29.3282 12.6863 29.8259 13.2246 29.9071C14.1692 30.0392 17.6934 30.1407 19.5012 29.9985C20.202 29.9681 20.2121 30.6587 20.2324 31.1462C20.2223 31.1767 20.2223 31.2173 20.2223 31.2478C19.8059 31.004 19.3387 30.6892 18.8207 30.7907C17.9168 30.9634 17.0637 31.0954 16.302 31.1868C13.6106 31.4306 12.4934 31.654 11.7113 30.8517C10.8785 30.161 9.32463 28.8814 8.80666 27.8353C8.65432 27.5306 8.28869 27.4087 7.99416 27.561C6.51135 28.4243 10.7567 31.5931 11.3254 32.1212C11.5692 32.3345 11.9957 32.5579 13.0317 32.6087C12.2192 33.1064 11.4676 33.6853 10.777 34.3454C9.93401 33.0759 9.11135 31.786 8.33948 30.5064ZM2.27619 22.7876C2.37776 22.5337 2.75354 22.554 2.86526 22.7876C5.02854 27.3884 7.25276 31.329 9.87307 35.1478C9.66994 35.1478 9.44651 35.1579 9.1926 35.1579C6.51135 31.2579 4.35823 27.4798 2.27619 23.0517C2.22541 22.94 2.25588 22.8384 2.27619 22.7876ZM6.39963 33.147C6.83635 33.8376 7.28323 34.5181 7.7301 35.1884C7.13088 35.1985 6.50119 35.2087 5.90198 35.2189L6.39963 33.147ZM6.15588 36.9454C4.67307 36.9657 3.00744 36.986 2.29651 37.0165C2.14416 37.0267 2.08323 36.9251 2.05276 36.854C1.98166 36.7321 2.09338 36.4985 2.29651 36.4985C3.67776 36.4579 7.03947 36.4173 8.93869 36.3868C8.81682 36.5595 8.69494 36.7321 8.57307 36.9048C8.01447 36.915 7.11057 36.9251 6.15588 36.9454ZM8.35979 41.0892C8.15666 41.4548 7.67932 41.1806 7.82151 40.8454C9.52776 36.8439 12.3106 33.6142 16.4543 32.365C17.6426 32.2126 18.6582 32.0298 19.0238 31.9689C19.2778 32.0501 19.6434 32.3142 19.9074 32.4462C14.7278 32.5376 10.7262 35.554 8.35979 41.0892ZM12.5645 36.8134C12.7473 36.6306 12.9301 36.4579 13.1231 36.2853C18.4754 36.1837 23.7973 36.1431 28.9364 36.1634C29.241 36.336 29.5457 36.5087 29.8504 36.6915C24.4067 36.6509 18.7192 36.6915 12.5645 36.8134ZM37.7317 40.754C37.9856 41.0384 37.5895 41.4345 37.3051 41.1603C32.7043 36.5087 27.2707 32.8931 20.9942 32.436C21.1668 32.304 21.2785 32.1009 21.3496 31.8775C26.6918 32.2837 32.6434 35.5032 37.7317 40.754ZM42.9824 36.8235C42.9621 36.8743 42.891 36.9962 42.7387 36.986C40.3621 36.8946 37.884 36.8235 35.1723 36.7626C34.959 36.59 34.7356 36.4173 34.5121 36.2446C37.1934 36.2954 39.9051 36.3767 42.7387 36.4782C42.9317 36.4782 43.0535 36.7017 42.9824 36.8235Z" fill="#897059"/>
<path d="M46.9329 11.6768C44.5564 6.73068 40.2196 3.33849 35.2939 1.99787C35.4056 1.49006 35.7306 0.789276 35.0095 0.575994C34.2681 0.443963 34.2376 1.21584 34.1056 1.71349C30.3579 0.961932 26.3462 1.36818 22.6493 3.14553C19.9681 4.44553 16.5251 6.52756 18.6884 9.86896C19.5415 11.0979 21.2782 11.1893 22.436 10.4377C22.9845 12.3471 25.4118 13.2205 27.047 12.1237C27.4939 13.7791 29.5759 14.7643 31.1603 14.0533L27.9712 26.5658C27.8899 26.8908 28.0829 27.226 28.4079 27.3072C28.7228 27.3885 29.0681 27.1955 29.1493 26.8705L32.3587 14.3072C33.4556 15.7088 35.761 15.7596 36.9392 14.4596C37.9142 16.1963 40.504 16.4705 41.8243 15.008C44.0689 18.4713 48.5782 15.1096 46.9329 11.6768ZM20.3642 9.66584C18.9423 9.14787 18.9118 7.01506 20.1001 6.15178C23.3501 3.57209 27.7681 2.2924 31.7595 2.62756C27.6868 4.10021 23.6853 6.60881 22.4157 8.73146C22.0298 9.47287 21.1868 9.84865 20.3642 9.66584ZM24.9954 11.3619C24.0509 11.1791 23.3704 10.2041 23.5329 9.25959C24.8126 7.1674 29.6368 4.59787 32.4399 3.68381C29.8603 6.31428 28.1743 8.40646 27.0978 10.3057C26.7017 11.0776 25.879 11.5549 24.9954 11.3619ZM29.6064 13.0377C28.6415 12.8447 28.0118 11.9205 28.1439 10.9557C29.1899 9.10725 30.8657 7.03537 33.486 4.38459L31.6884 11.9612C31.3329 12.7737 30.4798 13.2104 29.6064 13.0377ZM34.6337 14.1854C33.6689 14.1651 32.8462 13.3018 32.8564 12.3369L34.7149 4.46584C35.9134 7.63459 36.5126 10.3869 36.5126 12.8143C36.279 13.6572 35.4868 14.226 34.6337 14.1854ZM39.6204 14.744C38.6556 14.7846 37.772 13.9822 37.7212 13.0174C37.7517 10.4987 37.1931 7.74631 36.0454 4.57756C38.6149 6.97443 41.0321 9.95021 41.3673 13.4135C41.1439 14.1752 40.4329 14.7236 39.6204 14.744ZM44.9017 15.0893C43.8149 15.658 42.6673 14.6322 42.5962 13.5658C42.4235 9.95021 39.9759 6.60881 37.1423 3.93771C40.8189 5.49162 43.9673 8.33537 45.836 12.2151C46.354 13.2815 45.9376 14.5713 44.9017 15.0893Z" fill="#897059"/>
</svg>
