<svg width="44" height="45" viewBox="0 0 44 45" fill="none" xmlns="http://www.w3.org/2000/svg">
<rect x="0.5" y="1" width="43" height="43" rx="21.5" stroke="white"/>
<path d="M30.9 26.2556C29.5333 26.2556 28.2111 26.0333 26.9778 25.6333C26.7845 25.5682 26.5769 25.5587 26.3785 25.6059C26.1801 25.653 25.9989 25.7549 25.8556 25.9L24.1111 28.0889C20.9667 26.5889 18.0222 23.7556 16.4556 20.5L18.6222 18.6556C18.9222 18.3444 19.0111 17.9111 18.8889 17.5222C18.4778 16.2889 18.2667 14.9667 18.2667 13.6C18.2667 13 17.7667 12.5 17.1667 12.5H13.3222C12.7222 12.5 12 12.7667 12 13.6C12 23.9222 20.5889 32.5 30.9 32.5C31.6889 32.5 32 31.8 32 31.1889V27.3556C32 26.7556 31.5 26.2556 30.9 26.2556Z" fill="white"/>
</svg>
