<svg width="20" height="21" viewBox="0 0 20 21" fill="none" xmlns="http://www.w3.org/2000/svg">
<path d="M18.9 14.2556C17.5333 14.2556 16.2111 14.0333 14.9778 13.6333C14.7845 13.5682 14.5769 13.5587 14.3785 13.6059C14.1801 13.653 13.9989 13.7549 13.8556 13.9L12.1111 16.0889C8.96667 14.5889 6.02222 11.7556 4.45556 8.5L6.62222 6.65556C6.92222 6.34444 7.01111 5.91111 6.88889 5.52222C6.47778 4.28889 6.26667 2.96667 6.26667 1.6C6.26667 1 5.76667 0.5 5.16667 0.5H1.32222C0.722222 0.5 0 0.766667 0 1.6C0 11.9222 8.58889 20.5 18.9 20.5C19.6889 20.5 20 19.8 20 19.1889V15.3556C20 14.7556 19.5 14.2556 18.9 14.2556Z" fill="#fff"/>
</svg>
