<svg width="37" height="33" viewBox="0 0 37 33" fill="none" xmlns="http://www.w3.org/2000/svg">
<path d="M18.6775 11.4089C16.5999 11.4089 14.9155 13.0932 14.9155 15.1709C14.9155 17.2485 16.5998 18.9329 18.6775 18.9329C20.7551 18.9329 22.4395 17.2486 22.4395 15.1709C22.4395 13.0932 20.7552 11.4089 18.6775 11.4089ZM18.6775 17.1414C17.5892 17.1414 16.7069 16.2591 16.7069 15.1708C16.7069 14.0825 17.5892 13.2003 18.6775 13.2003C19.7658 13.2003 20.6481 14.0825 20.6481 15.1708C20.6481 16.2591 19.7658 17.1414 18.6775 17.1414Z" fill="white"/>
<path d="M33.6796 2.81006L9.22698 0.0334548C8.27796 -0.101471 7.31642 0.175581 6.5847 0.794833C5.85307 1.36214 5.38409 2.20306 5.28594 3.12363L4.83813 6.79602H3.4497C1.47913 6.79602 0.00121029 8.54259 0.00121029 10.5132V28.8302C-0.0484224 30.7093 1.43464 32.2729 3.31383 32.3226C3.35909 32.3238 3.40444 32.324 3.4497 32.3234H28.0367C30.0072 32.3234 31.7986 30.8008 31.7986 28.8302V28.1137C32.4096 27.9956 32.9891 27.7516 33.5005 27.3971C34.2261 26.7862 34.6907 25.921 34.7992 24.9787L36.8594 6.79602C37.0694 4.82091 35.652 3.04416 33.6796 2.81006ZM30.0072 28.8302C30.0072 29.8155 29.0219 30.532 28.0367 30.532H3.4497C2.55965 30.5582 1.81696 29.8578 1.79082 28.9678C1.78945 28.9219 1.79005 28.8761 1.79262 28.8302V25.5161L8.73434 20.4106C9.56824 19.7704 10.7428 19.8273 11.511 20.545L16.3926 24.8443C17.1339 25.4668 18.0671 25.8147 19.035 25.8296C19.7917 25.8389 20.536 25.6373 21.1847 25.2474L30.0073 20.1419V28.8302H30.0072ZM30.0072 18.037L20.2441 23.7247C19.4057 24.2214 18.3446 24.1315 17.6017 23.5008L12.6754 19.1566C11.2635 17.9434 9.19981 17.869 7.70423 18.9775L1.79262 23.2768V10.5132C1.79262 9.52788 2.46442 8.58743 3.4497 8.58743H28.0367C29.0893 8.63106 29.9394 9.46187 30.0072 10.5132V18.037ZM35.0697 6.5542C35.0691 6.56011 35.0686 6.56611 35.0679 6.57203L32.963 24.7547C32.9666 25.2262 32.7516 25.6727 32.3808 25.9639C32.2016 26.1431 31.7986 26.2327 31.7986 26.3223V10.5132C31.7278 8.4729 30.0775 6.84222 28.0366 6.79602H6.62945L7.03251 3.30279C7.11995 2.85043 7.35645 2.44051 7.70431 2.13835C8.09709 1.86678 8.57198 1.74017 9.04791 1.78003L33.4558 4.60146C34.4406 4.69499 35.1632 5.56926 35.0697 6.5542Z" fill="white"/>
</svg>
