<svg width="36" height="35" viewBox="0 0 36 35" fill="none" xmlns="http://www.w3.org/2000/svg">
<path d="M18 5.67371C18.5534 5.67371 19.0841 5.45385 19.4754 5.06249C19.8667 4.67113 20.0866 4.14033 20.0866 3.58686C20.0866 3.03339 19.8667 2.50259 19.4754 2.11123C19.0841 1.71987 18.5534 1.5 18 1.5C17.4466 1.5 16.9159 1.71987 16.5246 2.11123C16.1333 2.50259 15.9134 3.03339 15.9134 3.58686C15.9134 4.14033 16.1333 4.67113 16.5246 5.06249C16.9159 5.45385 17.4466 5.67371 18 5.67371ZM31.9134 5.67371C32.1875 5.67371 32.4588 5.61974 32.7119 5.51486C32.9651 5.40999 33.1951 5.25627 33.3889 5.06249C33.5826 4.86871 33.7363 4.63865 33.8412 4.38546C33.946 4.13227 34 3.86091 34 3.58686C34 3.31281 33.946 3.04144 33.8412 2.78825C33.7363 2.53506 33.5826 2.30501 33.3889 2.11123C33.1951 1.91744 32.9651 1.76373 32.7119 1.65885C32.4588 1.55398 32.1875 1.5 31.9134 1.5C31.3601 1.5 30.8293 1.71987 30.438 2.11123C30.0467 2.50259 29.8269 3.03339 29.8269 3.58686C29.8269 4.14033 30.0467 4.67113 30.438 5.06249C30.8293 5.45385 31.3601 5.67371 31.9134 5.67371ZM4.08656 5.67371C4.36057 5.67371 4.6319 5.61974 4.88505 5.51486C5.1382 5.40999 5.36822 5.25627 5.56198 5.06249C5.75573 4.86871 5.90943 4.63865 6.01429 4.38546C6.11915 4.13227 6.17312 3.86091 6.17312 3.58686C6.17312 3.31281 6.11915 3.04144 6.01429 2.78825C5.90943 2.53506 5.75573 2.30501 5.56198 2.11123C5.36822 1.91744 5.1382 1.76373 4.88505 1.65885C4.6319 1.55398 4.36057 1.5 4.08656 1.5C3.53317 1.5 3.00244 1.71987 2.61114 2.11123C2.21983 2.50259 2 3.03339 2 3.58686C2 4.14033 2.21983 4.67113 2.61114 5.06249C3.00244 5.45385 3.53317 5.67371 4.08656 5.67371ZM18 19.5869C18.5534 19.5869 19.0841 19.367 19.4754 18.9756C19.8667 18.5843 20.0866 18.0535 20.0866 17.5C20.0866 16.9465 19.8667 16.4157 19.4754 16.0244C19.0841 15.633 18.5534 15.4131 18 15.4131C17.4466 15.4131 16.9159 15.633 16.5246 16.0244C16.1333 16.4157 15.9134 16.9465 15.9134 17.5C15.9134 18.0535 16.1333 18.5843 16.5246 18.9756C16.9159 19.367 17.4466 19.5869 18 19.5869ZM31.9134 19.5869C32.4668 19.5869 32.9976 19.367 33.3889 18.9756C33.7802 18.5843 34 18.0535 34 17.5C34 16.9465 33.7802 16.4157 33.3889 16.0244C32.9976 15.633 32.4668 15.4131 31.9134 15.4131C31.3601 15.4131 30.8293 15.633 30.438 16.0244C30.0467 16.4157 29.8269 16.9465 29.8269 17.5C29.8269 18.0535 30.0467 18.5843 30.438 18.9756C30.8293 19.367 31.3601 19.5869 31.9134 19.5869ZM4.08656 19.5869C4.63995 19.5869 5.17067 19.367 5.56198 18.9756C5.95329 18.5843 6.17312 18.0535 6.17312 17.5C6.17312 16.9465 5.95329 16.4157 5.56198 16.0244C5.17067 15.633 4.63995 15.4131 4.08656 15.4131C3.53317 15.4131 3.00244 15.633 2.61114 16.0244C2.21983 16.4157 2 16.9465 2 17.5C2 18.0535 2.21983 18.5843 2.61114 18.9756C3.00244 19.367 3.53317 19.5869 4.08656 19.5869ZM18 33.5C18.5534 33.5 19.0841 33.2801 19.4754 32.8888C19.8667 32.4974 20.0866 31.9666 20.0866 31.4131C20.0866 30.8597 19.8667 30.3289 19.4754 29.9375C19.0841 29.5462 18.5534 29.3263 18 29.3263C17.4466 29.3263 16.9159 29.5462 16.5246 29.9375C16.1333 30.3289 15.9134 30.8597 15.9134 31.4131C15.9134 31.9666 16.1333 32.4974 16.5246 32.8888C16.9159 33.2801 17.4466 33.5 18 33.5ZM31.9134 33.5C32.4668 33.5 32.9976 33.2801 33.3889 32.8888C33.7802 32.4974 34 31.9666 34 31.4131C34 30.8597 33.7802 30.3289 33.3889 29.9375C32.9976 29.5462 32.4668 29.3263 31.9134 29.3263C31.3601 29.3263 30.8293 29.5462 30.438 29.9375C30.0467 30.3289 29.8269 30.8597 29.8269 31.4131C29.8269 31.9666 30.0467 32.4974 30.438 32.8888C30.8293 33.2801 31.3601 33.5 31.9134 33.5ZM4.08656 33.5C4.63995 33.5 5.17067 33.2801 5.56198 32.8888C5.95329 32.4974 6.17312 31.9666 6.17312 31.4131C6.17312 30.8597 5.95329 30.3289 5.56198 29.9375C5.17067 29.5462 4.63995 29.3263 4.08656 29.3263C3.53317 29.3263 3.00244 29.5462 2.61114 29.9375C2.21983 30.3289 2 30.8597 2 31.4131C2 31.9666 2.21983 32.4974 2.61114 32.8888C3.00244 33.2801 3.53317 33.5 4.08656 33.5Z" stroke="white" stroke-width="3" stroke-linecap="round" stroke-linejoin="round"/>
</svg>
