<svg width="20" height="29" viewBox="0 0 20 29" fill="none" xmlns="http://www.w3.org/2000/svg">
<path d="M10 13.775C9.0528 13.775 8.14439 13.3931 7.47462 12.7133C6.80485 12.0334 6.42857 11.1114 6.42857 10.15C6.42857 9.18859 6.80485 8.26656 7.47462 7.58674C8.14439 6.90692 9.0528 6.525 10 6.525C10.9472 6.525 11.8556 6.90692 12.5254 7.58674C13.1952 8.26656 13.5714 9.18859 13.5714 10.15C13.5714 10.626 13.4791 11.0974 13.2996 11.5372C13.1201 11.977 12.857 12.3766 12.5254 12.7133C12.1937 13.0499 11.8 13.3169 11.3667 13.4991C10.9334 13.6812 10.469 13.775 10 13.775ZM10 0C7.34784 0 4.8043 1.06937 2.92893 2.97287C1.05357 4.87636 0 7.45805 0 10.15C0 17.7625 10 29 10 29C10 29 20 17.7625 20 10.15C20 7.45805 18.9464 4.87636 17.0711 2.97287C15.1957 1.06937 12.6522 0 10 0Z" fill="white"/>
</svg>
