<svg width="81" height="91" viewBox="0 0 81 91" fill="none" xmlns="http://www.w3.org/2000/svg">
<path d="M45.1338 0.0830078C59.7243 0.0830078 72.6925 7.02068 80.9258 17.7754C80.6316 17.9282 80.3403 18.0962 80.0537 18.2822C71.9994 7.82365 59.3549 1.08301 45.1338 1.08301C20.8053 1.08325 1.08325 20.8053 1.08301 45.1338C1.0832 69.0822 20.1939 88.5677 43.9971 89.1709L45.1338 89.1855C59.3553 89.1855 72.0024 82.4455 80.0566 71.9863C80.3423 72.1716 80.6326 72.3389 80.9258 72.4912C72.6925 83.2464 59.7246 90.1855 45.1338 90.1855C20.253 90.1853 0.0832058 70.0146 0.0830078 45.1338C0.0832532 20.253 20.253 0.0832531 45.1338 0.0830078Z" fill="white"/>
</svg>
