<svg width="26" height="18" viewBox="0 0 26 18" fill="none" xmlns="http://www.w3.org/2000/svg">
<path d="M3.66667 0.5C2.69421 0.5 1.76158 0.878879 1.07394 1.55329C0.386309 2.2277 0 3.14239 0 4.09615V13.9038C0 14.8576 0.386309 15.7723 1.07394 16.4467C1.76158 17.1211 2.69421 17.5 3.66667 17.5H15C15.9725 17.5 16.9051 17.1211 17.5927 16.4467C18.2804 15.7723 18.6667 14.8576 18.6667 13.9038V11.8194L23.2253 15.8013C24.2987 16.7389 26 15.9909 26 14.5799V2.93885C26 1.52654 24.2987 0.779846 23.2253 1.71746L18.6667 5.69938V4.09615C18.6667 3.14239 18.2804 2.2277 17.5927 1.55329C16.9051 0.878879 15.9725 0.5 15 0.5H3.66667Z" fill="#fff"/>
</svg>
